<?xml version="1.0" standalone="no"?><!DOCTYPE svg PUBLIC "-//W3C//DTD SVG 1.1//EN" "http://www.w3.org/Graphics/SVG/1.1/DTD/svg11.dtd"><svg t="1652787974620" class="icon" viewBox="0 0 1024 1024" version="1.1" xmlns="http://www.w3.org/2000/svg" p-id="7186" xmlns:xlink="http://www.w3.org/1999/xlink" width="16" height="16"><defs><style type="text/css">@font-face { font-family: feedback-iconfont; src: url("//at.alicdn.com/t/font_1031158_u69w8yhxdu.woff2?t=1630033759944") format("woff2"), url("//at.alicdn.com/t/font_1031158_u69w8yhxdu.woff?t=1630033759944") format("woff"), url("//at.alicdn.com/t/font_1031158_u69w8yhxdu.ttf?t=1630033759944") format("truetype"); }
</style></defs><path d="M917.4528 239.9232l-134.4-134.4a43.61216 43.61216 0 0 0-30.976-12.8c-11.6736 0-22.6816 4.5568-30.9248 12.8L506.7264 319.9488l-28.928 28.9792-138.3936 138.3936-28.9792 28.928-175.0528 175.0528c-8.4992 8.448-11.5712 20.2752-9.3184 31.232-3.1744 3.4816-5.3248 7.8848-6.144 12.8l-27.2384 169.6256a20.97664 20.97664 0 0 0 20.736 24.32c1.0752 0 2.2016-0.1024 3.2768-0.256l169.6768-27.2896c4.4544-0.7168 8.5504-2.6112 11.9296-5.3248 2.9184 0.8192 5.9904 1.2288 9.1648 1.2288 9.1136 0 17.7664-3.5328 24.2176-10.0352l175.0528-175.0528 28.9792-28.928 138.3936-138.3936 28.928-28.9792 214.4256-214.3744c17.0496-17.1008 17.0496-44.8512 0-61.952zM131.328 890.368l20.6336-128.5632 107.9296 107.9296-128.5632 20.6336zM888.4736 272.896l-214.3744 214.4256-28.9792 28.928-138.3936 138.3936-28.928 28.9792-170.3424 170.2912-138.3936-138.3936 170.3424-170.2912 28.928-28.9792L506.7264 377.856l28.9792-28.928 214.3744-214.4256c1.3824-1.3824 2.6624-1.3824 3.9936 0l134.4 134.4c1.1264 1.0752 1.1264 2.8672 0 3.9936z" fill="#e6e6e6" p-id="7187"></path></svg>