<?xml version="1.0" standalone="no"?><!DOCTYPE svg PUBLIC "-//W3C//DTD SVG 1.1//EN" "http://www.w3.org/Graphics/SVG/1.1/DTD/svg11.dtd"><svg t="1652687139781" class="icon" viewBox="0 0 1024 1024" version="1.1" xmlns="http://www.w3.org/2000/svg" p-id="1259" xmlns:xlink="http://www.w3.org/1999/xlink" width="16" height="16"><defs><style type="text/css">@font-face { font-family: feedback-iconfont; src: url("//at.alicdn.com/t/font_1031158_u69w8yhxdu.woff2?t=1630033759944") format("woff2"), url("//at.alicdn.com/t/font_1031158_u69w8yhxdu.woff?t=1630033759944") format("woff"), url("//at.alicdn.com/t/font_1031158_u69w8yhxdu.ttf?t=1630033759944") format("truetype"); }
</style></defs><path d="M975.7 33.9H48.3C20.6 33.9 2 53.4 2 82.6v731.2c0 29.3 18.5 48.8 46.3 48.8h927.3c27.8 0 46.3-19.5 46.3-48.8V82.6c0.1-29.3-18.4-48.7-46.2-48.7z m-17.4 765H65.8V97.6h892.5v701.3zM781.7 926.4H242.3c-29.5 0-49.1 12.8-49.1 31.9s19.6 31.9 49.1 31.9h539.3c29.5 0 49.1-12.8 49.1-31.9s-19.6-31.9-49-31.9z" p-id="1260" fill="#ffffff"></path></svg>